<svg width="64" height="42" viewBox="0 0 64 42" fill="none" xmlns="http://www.w3.org/2000/svg">
<path fill-rule="evenodd" clip-rule="evenodd" d="M56.5304 24.5168L61.508 21.6152L50.6449 2.60502L45.6674 5.50663L56.5304 24.5168ZM36.3369 32.3303L35.2744 30.8405L28.1397 36.0257L25.8344 34.3472L32.4733 29.5198L31.4108 28.03L24.2761 33.2216L21.9644 31.5431L28.6033 26.7158L27.5408 25.2259L20.4125 30.4111L18.0815 28.7196L29.8847 20.1188L34.727 22.7407C37.6569 24.3346 41.1019 22.7537 42.6087 19.9432L42.9822 19.234L42.3383 18.7656L33.5873 12.4029L36.3691 10.386H46.3564L53.6328 23.1115L37.4315 34.8871L32.0032 38.8362L29.7044 37.1642L36.3369 32.3303ZM18.6997 8.53837H27.9851H28.2749L28.5196 8.71403L32.0354 11.2708L35.5513 8.71403L35.796 8.53837H36.0857H45.3068L43.6454 5.63025L43.1883 4.83002L43.9738 4.36811L50.529 0.542655L51.3146 0.09375L51.7718 0.887466L63.5428 21.4851L64 22.2853L63.2144 22.7472L56.6592 26.5726L55.8672 27.0346L55.41 26.2408L54.5407 24.7185L38.494 36.377L32.5312 40.7099L32.0032 41.0938L31.4752 40.7099L9.45286 24.712L8.58356 26.2343L8.12637 27.0281L7.33434 26.5661L0.785592 22.7472L0 22.2853L0.457189 21.4851L12.2282 0.887466L12.6854 0.09375L13.4774 0.555667L20.0262 4.37461L20.8118 4.83653L20.3546 5.63675L18.6997 8.53837ZM16.5232 27.5876L29.2794 18.2972L29.7366 17.9589L30.2389 18.2321L35.5835 21.1272C37.3865 22.0966 39.4084 21.3159 40.5868 19.761L27.7018 10.3925H17.6436L10.3672 23.1115L16.5232 27.5876ZM2.48556 21.6152L7.46313 24.5168L18.3262 5.50663L13.3486 2.60502L2.48556 21.6152Z" fill="#08BEB2"/>
</svg>
