<svg width="66" height="43" viewBox="0 0 66 43" fill="none" xmlns="http://www.w3.org/2000/svg">
<path d="M48.0424 31.3834C45.1324 20.8834 43.9824 11.7334 36.3924 11.7334H13.2024C5.61239 11.7334 4.46239 20.8834 1.55239 31.3834C-0.927607 40.3434 5.53239 42.9734 9.24239 40.1034C11.8024 38.1334 15.3324 30.7534 15.3324 30.7534H24.7924H34.2524C34.2524 30.7534 37.7824 38.1334 40.3424 40.1034C44.0624 42.9834 50.5224 40.3534 48.0424 31.3834Z" stroke="#08BEB2" stroke-width="2" stroke-miterlimit="10" stroke-linecap="round" stroke-linejoin="round"/>
<path d="M14.1223 17.6035V23.6035" stroke="#08BEB2" stroke-width="2" stroke-miterlimit="10" stroke-linecap="round" stroke-linejoin="round"/>
<path d="M11.1223 20.6035H17.1223" stroke="#08BEB2" stroke-width="2" stroke-miterlimit="10" stroke-linecap="round" stroke-linejoin="round"/>
<path d="M39.2423 20.9939C39.0323 20.9939 38.8723 20.8239 38.8723 20.6239C38.8723 20.4139 39.0423 20.2539 39.2423 20.2539C39.4523 20.2539 39.6123 20.4239 39.6123 20.6239C39.6123 20.8239 39.4523 20.9939 39.2423 20.9939Z" stroke="#08BEB2" stroke-width="2" stroke-miterlimit="10" stroke-linecap="round" stroke-linejoin="round"/>
<path d="M31.9923 20.9939C31.7823 20.9939 31.6223 20.8239 31.6223 20.6239C31.6223 20.4139 31.7923 20.2539 31.9923 20.2539C32.1923 20.2539 32.3623 20.4239 32.3623 20.6239C32.3623 20.8239 32.1923 20.9939 31.9923 20.9939Z" stroke="#08BEB2" stroke-width="2" stroke-miterlimit="10" stroke-linecap="round" stroke-linejoin="round"/>
<path d="M35.6124 17.364C35.8168 17.364 35.9824 17.1984 35.9824 16.994C35.9824 16.7897 35.8168 16.624 35.6124 16.624C35.4081 16.624 35.2424 16.7897 35.2424 16.994C35.2424 17.1984 35.4081 17.364 35.6124 17.364Z" stroke="#08BEB2" stroke-width="2" stroke-miterlimit="10" stroke-linecap="round" stroke-linejoin="round"/>
<path d="M35.9924 24.244C35.9924 24.454 35.8224 24.614 35.6224 24.614C35.4124 24.614 35.2524 24.444 35.2524 24.244C35.2524 24.034 35.4224 23.874 35.6224 23.874C35.8224 23.874 35.9924 24.044 35.9924 24.244Z" stroke="#08BEB2" stroke-width="2" stroke-miterlimit="10" stroke-linecap="round" stroke-linejoin="round"/>
<path d="M49.9623 20.1238C49.9623 20.1238 53.4923 27.5037 56.0523 29.4737C59.7723 32.3437 66.2323 29.7137 63.7423 20.7537C60.8323 10.2437 59.6823 1.09375 52.0923 1.09375H28.9023C24.7223 1.09375 22.5023 3.86375 20.8523 8.11375" stroke="#08BEB2" stroke-width="2" stroke-miterlimit="10" stroke-linecap="round" stroke-linejoin="round"/>
<path d="M54.9425 10.3533C54.7325 10.3533 54.5725 10.1833 54.5725 9.98328C54.5725 9.77328 54.7425 9.61328 54.9425 9.61328C55.1525 9.61328 55.3125 9.78328 55.3125 9.98328C55.3125 10.1833 55.1525 10.3533 54.9425 10.3533Z" stroke="#08BEB2" stroke-width="2" stroke-miterlimit="10" stroke-linecap="round" stroke-linejoin="round"/>
<path d="M47.6925 10.3533C47.4825 10.3533 47.3225 10.1833 47.3225 9.98328C47.3225 9.77328 47.4925 9.61328 47.6925 9.61328C47.9025 9.61328 48.0625 9.78328 48.0625 9.98328C48.0625 10.1833 47.8925 10.3533 47.6925 10.3533Z" stroke="#08BEB2" stroke-width="2" stroke-miterlimit="10" stroke-linecap="round" stroke-linejoin="round"/>
<path d="M51.6924 6.35382C51.6924 6.56382 51.5224 6.72382 51.3224 6.72382C51.1124 6.72382 50.9524 6.55382 50.9524 6.35382C50.9524 6.14382 51.1224 5.98382 51.3224 5.98382C51.5224 5.97382 51.6924 6.14382 51.6924 6.35382Z" stroke="#08BEB2" stroke-width="2" stroke-miterlimit="10" stroke-linecap="round" stroke-linejoin="round"/>
<path d="M51.3124 13.9734C51.5167 13.9734 51.6824 13.8077 51.6824 13.6034C51.6824 13.3991 51.5167 13.2334 51.3124 13.2334C51.108 13.2334 50.9424 13.3991 50.9424 13.6034C50.9424 13.8077 51.108 13.9734 51.3124 13.9734Z" stroke="#08BEB2" stroke-width="2" stroke-miterlimit="10" stroke-linecap="round" stroke-linejoin="round"/>
<path d="M29.7124 7.47375V5.59375" stroke="#08BEB2" stroke-width="2" stroke-miterlimit="10" stroke-linecap="round" stroke-linejoin="round"/>
</svg>
