<svg width="58" height="56" viewBox="0 0 58 56" fill="none" xmlns="http://www.w3.org/2000/svg">
<g clip-path="url(#clip0_457_1096)">
<path d="M56.7917 24.3873V40.3237C56.7917 42.5344 55.7888 44.6358 54.0729 46.0205L44.7083 53.5393L35.3438 46.0084C33.6279 44.6236 32.625 42.5344 32.625 40.3237V24.3873L44.7083 21.958L56.7917 24.3873Z" stroke="#08BEB2" stroke-width="2" stroke-miterlimit="10"/>
<path d="M51.9583 32.8896L44.7083 40.1776L39.875 35.319" stroke="#08BEB2" stroke-width="2" stroke-miterlimit="10"/>
<path d="M40.3101 7.98926C36.1776 12.1191 30.4622 14.6699 24.1668 14.6699C17.8714 14.6699 12.1559 12.1191 8.02344 7.98926" stroke="#08BEB2" stroke-width="2" stroke-miterlimit="10"/>
<path d="M1.20825 24.3867H12.0833H28.9999" stroke="#08BEB2" stroke-width="2" stroke-miterlimit="10"/>
<path d="M24.1666 47.4658C23.9612 47.4658 23.7558 47.4658 23.5503 47.4415C19.2487 47.0164 15.5391 42.3035 13.5816 35.4892C12.627 32.1975 12.0833 28.4078 12.0833 24.3872C12.0833 19.9294 12.7478 15.751 13.8958 12.2284C16.0345 5.66924 19.8287 1.30859 24.1666 1.30859C28.5045 1.30859 32.2987 5.66924 34.4253 12.2284C35.1866 14.5727 35.7303 17.1843 36.0203 19.9901" stroke="#08BEB2" stroke-width="2" stroke-miterlimit="10"/>
<path d="M7.44336 40.1776C9.20753 38.2828 11.2738 36.6915 13.5817 35.489C16.7475 33.8249 20.3484 32.8896 24.1667 32.8896C25.8342 32.8896 27.4413 33.0718 29 33.4241" stroke="#08BEB2" stroke-width="2" stroke-miterlimit="10"/>
<path d="M46.3758 18.5811C45.3366 14.4998 43.1978 10.8559 40.3099 7.98925C36.262 3.94442 30.7158 1.41791 24.5774 1.32074C24.4445 1.30859 24.2995 1.30859 24.1666 1.30859C24.0337 1.30859 23.8887 1.30859 23.7558 1.32074C17.6174 1.41791 12.0712 3.94442 8.02325 7.98925C3.81825 12.1677 1.20825 17.9738 1.20825 24.3872C1.20825 30.497 3.57659 36.0601 7.44325 40.1779C11.4912 44.5264 17.1945 47.2836 23.5503 47.4415C23.7558 47.4658 23.9612 47.4658 24.1666 47.4658C26.4987 47.4658 28.7462 47.1014 30.8608 46.4455" stroke="#08BEB2" stroke-width="2" stroke-miterlimit="10"/>
</g>
<defs>
<clipPath id="clip0_457_1096">
<rect width="58" height="55" fill="white" transform="translate(0 0.09375)"/>
</clipPath>
</defs>
</svg>
