<svg width="58" height="47" viewBox="0 0 58 47" fill="none" xmlns="http://www.w3.org/2000/svg">
<path fill-rule="evenodd" clip-rule="evenodd" d="M23.8588 15.7185C22.6348 22.6986 27.3479 29.3709 34.3755 30.5879C41.41 31.8049 48.1069 27.1258 49.3309 20.1318C50.555 13.1447 45.8488 6.47934 38.8143 5.26237C31.7867 4.05239 25.0828 8.72443 23.8588 15.7185ZM25.3783 27.7133C27.6856 30.3291 30.7667 31.9727 34.0378 32.5392C34.2137 32.5672 34.3825 32.5952 34.5584 32.6232L33.7072 43.9745H2.84653L2.02349 32.9729C1.74914 28.9513 3.31785 27.0559 7.45417 27.0559H10.683L17.4855 36.0922L18.2804 37.1483L19.0753 36.0922L25.3783 27.7133ZM36.5421 32.7631L35.6276 45.0376L35.5573 45.9539H34.6357H1.925H0.99644L0.926094 45.0376L0.0397389 33.1198C-0.354197 27.9511 2.18528 25.0696 7.45417 25.0696H11.1755H11.6679L11.9704 25.4682L18.2804 33.8471L24.1331 26.0767C23.1342 24.573 22.4519 22.9504 22.065 21.2928C21.671 21.4397 21.263 21.5586 20.841 21.6635C20.0109 21.8593 19.1527 21.9712 18.2804 21.9712C12.2236 21.9712 7.27831 17.0614 7.27831 11.0395C7.27831 8.02503 8.51639 5.29034 10.5072 3.31102C12.498 1.32471 15.2485 0.09375 18.2804 0.09375C20.5596 0.09375 22.684 0.793157 24.4497 1.98215C25.9058 2.96831 27.1088 4.29019 27.9529 5.83588L28.0162 5.79392C31.3858 3.43692 35.3955 2.66057 39.1519 3.31102C47.2628 4.71683 52.7075 12.3963 51.2936 20.4675C50.8645 22.9294 49.8093 25.2934 48.1702 27.2867L57.1393 38.7849C58.3071 40.2747 58.2297 42.275 57.1815 43.7927C56.8228 44.3103 56.3585 44.7719 55.8379 45.1356C55.3174 45.4993 54.7265 45.779 54.1074 45.9399C52.3206 46.4085 50.3861 45.807 49.3802 44.2054L41.5366 31.9238C39.9117 32.4973 38.2234 32.77 36.5421 32.7631ZM26.3772 7.1158C23.9573 9.36789 22.4378 12.2914 21.8961 15.3828C21.671 16.6697 21.6148 17.9846 21.7343 19.2925C21.2982 19.4743 20.841 19.6212 20.3767 19.7331C19.7154 19.894 19.012 19.9779 18.2733 19.9779C13.314 19.9779 9.26909 15.9563 9.26909 11.0255C9.26909 8.56357 10.2821 6.31847 11.9141 4.70284C13.5461 3.08022 15.7972 2.07307 18.2733 2.07307C20.1445 2.07307 21.8821 2.63959 23.3171 3.61876C24.6256 4.50001 25.6878 5.70299 26.3772 7.1158ZM43.3938 31.1334C44.6319 30.504 45.7785 29.6996 46.7985 28.7554L55.5425 39.9599C56.2108 40.9041 56.0771 41.9043 55.5495 42.6667C55.3244 42.9884 55.0289 43.2821 54.6983 43.5129C54.3607 43.7437 53.9949 43.9256 53.608 44.0235C52.7146 44.2613 51.7368 44.0515 51.0685 43.1353L43.3938 31.1334ZM42.0502 14.1099C40.988 12.6131 39.4192 11.6829 37.738 11.3892C34.1081 10.7597 30.6471 13.1727 30.0211 16.7816C29.7256 18.4532 30.0773 20.2437 31.1325 21.7404L29.606 23.0203C28.2343 20.971 27.6223 18.9218 28.0584 16.4529C28.8815 11.7738 33.3625 8.62652 38.0756 9.44482C40.2634 9.8225 42.3034 11.0325 43.6752 12.9768L42.0502 14.1099Z" fill="#08BEB2"/>
</svg>
