<svg width="48" height="40" viewBox="0 0 48 40" fill="none" xmlns="http://www.w3.org/2000/svg">
    <path d="M0 25.8993C0 34.3597 5.00719 39.0216 10.705 39.0216C15.8849 39.0216 19.8561 34.8777 19.8561 29.8705C19.8561 24.6906 16.4029 21.0648 11.5683 21.0648C10.705 21.0648 9.4964 21.2374 9.32374 21.2374C9.84173 15.7122 14.8489 8.80575 20.3741 5.17986L13.9856 0C6.04317 5.69784 0 15.3669 0 25.8993ZM27.6259 25.8993C27.6259 34.3597 32.6331 39.0216 38.3309 39.0216C43.5108 39.0216 47.6547 34.8777 47.6547 29.8705C47.6547 24.6906 44.0288 21.0648 39.1942 21.0648C38.3309 21.0648 37.1223 21.2374 36.9496 21.2374C37.6403 15.7122 42.4748 8.80575 48 5.17986L41.6115 0C33.6691 5.69784 27.6259 15.3669 27.6259 25.8993Z" fill="#39B4BD"/>
</svg>
