<svg width="128" height="96" viewBox="0 0 128 96" fill="none" xmlns="http://www.w3.org/2000/svg">
    <path fill-rule="evenodd" clip-rule="evenodd" d="M4.77049 66.8286C8.05744 69.9424 12.3569 71.2685 15.1229 74.8566C15.6169 75.4971 16.1855 76.0796 16.649 76.7434C17.2641 77.6223 18.3964 78.6869 17.73 79.6342C17.1186 80.5028 15.7319 79.87 14.723 79.5826C13.4061 79.2088 12.2456 78.4665 11.2294 77.5179C8.54901 75.0202 6.55214 71.9748 4.93924 68.6342C4.71301 68.1651 4.46111 67.6921 4.77049 66.8286Z" fill="#068581"/>
    <path fill-rule="evenodd" clip-rule="evenodd" d="M122.766 66.8286C119.479 69.9424 115.18 71.2685 112.414 74.8566C111.92 75.4971 111.351 76.0796 110.888 76.7434C110.273 77.6223 109.14 78.6869 109.807 79.6342C110.418 80.5028 111.805 79.87 112.814 79.5826C114.131 79.2088 115.291 78.4665 116.307 77.5179C118.988 75.0202 120.985 71.9748 122.597 68.6342C122.824 68.1651 123.076 67.6921 122.766 66.8286Z" fill="#068581"/>
    <path fill-rule="evenodd" clip-rule="evenodd" d="M1.04349 37.6855C1.68114 39.3952 2.23771 40.8463 2.76404 42.3086C3.98025 45.6946 6.21888 48.59 7.35813 52.0148C7.61511 52.7915 8.02738 53.5143 8.28299 54.2897C8.60731 55.2737 9.58715 56.5314 8.69939 57.2556C7.67283 58.0917 6.47999 56.9806 5.52627 56.3517C3.20655 54.8176 1.93263 52.522 1.26612 49.8754C0.477307 46.7381 0.279417 43.5234 0.19284 40.3059C0.170852 39.4947 0.337135 38.6668 1.04349 37.6855Z" fill="#068581"/>
    <path fill-rule="evenodd" clip-rule="evenodd" d="M126.494 37.6855C125.856 39.3952 125.3 40.8463 124.773 42.3086C123.557 45.6946 121.318 48.59 120.179 52.0148C119.922 52.7915 119.51 53.5143 119.254 54.2897C118.93 55.2737 117.95 56.5314 118.838 57.2556C119.864 58.0917 121.057 56.9806 122.011 56.3517C124.331 54.8176 125.605 52.522 126.271 49.8754C127.06 46.7381 127.258 43.5234 127.344 40.3059C127.366 39.4947 127.2 38.6668 126.494 37.6855Z" fill="#068581"/>
    <path fill-rule="evenodd" clip-rule="evenodd" d="M0.190979 52.2571C3.46548 57.0892 7.50636 60.4868 10.6704 64.7286C11.3238 65.6036 12.495 66.6932 11.8128 67.679C11.2199 68.5329 9.77261 68.0435 8.7407 67.6804C5.85004 66.6609 3.77177 64.587 2.38362 61.7545C1.00862 58.9458 0.21727 55.9492 0.190979 52.2571Z" fill="#068581"/>
    <path fill-rule="evenodd" clip-rule="evenodd" d="M127.346 52.2571C124.072 57.0892 120.031 60.4868 116.867 64.7286C116.213 65.6036 115.042 66.6932 115.724 67.679C116.317 68.5329 117.765 68.0435 118.797 67.6804C121.687 66.6609 123.765 64.587 125.154 61.7545C126.529 58.9458 127.32 55.9492 127.346 52.2571Z" fill="#068581"/>
    <path fill-rule="evenodd" clip-rule="evenodd" d="M22.369 21.7893C19.6345 25.7656 16.7623 29.5897 13.3867 32.9176C12.7528 33.5435 11.9512 33.9934 11.1073 33.5038C10.1837 32.9692 10.6425 32.0046 10.7463 31.2106C11.0566 28.8354 12.3737 27.1404 14.0205 25.7312C16.4581 23.6445 19.3001 22.5158 22.369 21.7893Z" fill="#068581"/>
    <path fill-rule="evenodd" clip-rule="evenodd" d="M105.168 21.7893C107.902 25.7656 110.774 29.5897 114.15 32.9176C114.784 33.5435 115.585 33.9934 116.429 33.5038C117.353 32.9692 116.894 32.0046 116.79 31.2106C116.48 28.8354 115.163 27.1404 113.516 25.7312C111.079 23.6445 108.237 22.5158 105.168 21.7893Z" fill="#068581"/>
    <path fill-rule="evenodd" clip-rule="evenodd" d="M18.9007 60.2057C19.261 64.8428 20.2406 69.023 20.8599 73.2501C20.9554 73.9006 20.8281 74.5384 20.5068 75.1155C19.9309 76.1546 19.1568 76.4596 18.0152 75.6079C16.2586 74.2967 15.2457 72.635 15.0359 70.662C14.6337 66.8487 16.3194 63.5987 18.9007 60.2057Z" fill="#068581"/>
    <path fill-rule="evenodd" clip-rule="evenodd" d="M108.637 60.2057C108.276 64.8428 107.297 69.023 106.677 73.2501C106.582 73.9006 106.709 74.5384 107.03 75.1155C107.606 76.1546 108.38 76.4596 109.522 75.6079C111.279 74.2967 112.292 72.635 112.501 70.662C112.904 66.8487 111.218 63.5987 108.637 60.2057Z" fill="#068581"/>
    <path fill-rule="evenodd" clip-rule="evenodd" d="M4.11527 27.0887C5.43502 32.261 7.87031 36.6742 7.55629 41.9638C7.52884 42.4281 7.57825 42.9115 7.48383 43.3541C7.29059 44.2597 6.92167 44.6666 6.13333 43.9243C4.91459 42.7776 4.11307 41.3056 3.72989 39.5913C2.89653 35.8643 3.04366 32.0977 3.63766 28.3426C3.68706 28.0135 3.87152 27.7125 4.11527 27.0887Z" fill="#068581"/>
    <path fill-rule="evenodd" clip-rule="evenodd" d="M123.422 27.0887C122.102 32.261 119.667 36.6742 119.981 41.9638C120.008 42.4281 119.959 42.9115 120.053 43.3541C120.247 44.2597 120.616 44.6666 121.404 43.9243C122.623 42.7776 123.424 41.3056 123.807 39.5913C124.641 35.8643 124.494 32.0977 123.9 28.3426C123.85 28.0135 123.666 27.7125 123.422 27.0887Z" fill="#068581"/>
    <path fill-rule="evenodd" clip-rule="evenodd" d="M9.06162 13.8417C8.35081 19.1786 9.0367 24.7263 9.06031 29.8335C9.06162 30.3267 9.0708 30.8227 9.03015 31.3133C8.93048 32.4985 8.419 32.6999 7.54294 31.9309C5.36983 30.02 4.51475 27.4914 4.63803 24.6641C4.77442 21.5504 5.72262 18.6191 7.11802 15.858C7.40392 15.2864 8.03081 14.1512 9.06162 13.8417Z" fill="#068581"/>
    <path fill-rule="evenodd" clip-rule="evenodd" d="M118.475 13.8417C119.186 19.1786 118.5 24.7263 118.476 29.8335C118.475 30.3267 118.466 30.8227 118.507 31.3133C118.606 32.4985 119.118 32.6999 119.994 31.9309C122.167 30.02 123.022 27.4914 122.899 24.6641C122.762 21.5504 121.814 18.6191 120.419 15.858C120.133 15.2864 119.506 14.1512 118.475 13.8417Z" fill="#068581"/>
    <path fill-rule="evenodd" clip-rule="evenodd" d="M17.9338 32.4474C16.2015 36.2313 14.4553 39.9076 11.8638 43.0427C11.6212 43.3353 11.3498 43.6071 11.0634 43.8531C10.6327 44.2228 10.1211 44.4407 9.58519 44.2216C8.95232 43.9621 9.08398 43.3084 9.0655 42.7648C9.02393 41.4892 9.41774 40.336 10.0321 39.2698C11.7887 36.2277 14.1908 33.9335 17.242 32.4204C17.4072 32.3384 17.6497 32.4315 17.9338 32.4474Z" fill="#068581"/>
    <path fill-rule="evenodd" clip-rule="evenodd" d="M109.603 32.4474C111.336 36.2313 113.082 39.9076 115.673 43.0427C115.916 43.3353 116.187 43.6071 116.474 43.8531C116.905 44.2228 117.416 44.4407 117.952 44.2216C118.585 43.9621 118.453 43.3084 118.472 42.7648C118.513 41.4892 118.119 40.336 117.505 39.2698C115.749 36.2277 113.346 33.9335 110.295 32.4204C110.13 32.3384 109.888 32.4315 109.603 32.4474Z" fill="#068581"/>
    <path fill-rule="evenodd" clip-rule="evenodd" d="M16.286 43.1573C16.2495 46.9679 15.0036 50.4766 13.1677 53.8375C13.0528 54.0487 12.9379 54.2613 12.8047 54.4609C12.1923 55.3786 11.5224 56.5204 10.205 56.1653C8.84697 55.8011 9.0684 54.3961 9.08662 53.411C9.12026 51.4837 9.93031 49.7222 11.0753 48.1228C12.6281 45.9518 14.2314 43.8132 15.8123 41.6603C16.8788 41.9143 16.3 42.6129 16.286 43.1573Z" fill="#068581"/>
    <path fill-rule="evenodd" clip-rule="evenodd" d="M111.251 43.1573C111.288 46.9679 112.534 50.4766 114.37 53.8375C114.484 54.0487 114.599 54.2613 114.733 54.4609C115.345 55.3786 116.015 56.5204 117.332 56.1653C118.69 55.8011 118.469 54.3961 118.451 53.411C118.417 51.4837 117.607 49.7222 116.462 48.1228C114.909 45.9518 113.306 43.8132 111.725 41.6603C110.658 41.9143 111.237 42.6129 111.251 43.1573Z" fill="#068581"/>
    <path fill-rule="evenodd" clip-rule="evenodd" d="M16.455 50.9325C15.9981 55.2723 16.0051 59.1316 15.3138 62.8669C15.1569 63.7137 15.004 64.5714 14.7716 65.3838C14.5481 66.1686 14.1608 66.8501 13.4775 66.8281C12.8577 66.8088 12.7465 65.9868 12.532 65.392C11.8139 63.4066 11.9202 61.3607 12.4207 59.3408C13.1855 56.254 14.5779 53.7289 16.455 50.9325Z" fill="#068581"/>
    <path fill-rule="evenodd" clip-rule="evenodd" d="M111.082 50.9325C111.539 55.2723 111.532 59.1316 112.223 62.8669C112.38 63.7137 112.533 64.5714 112.766 65.3838C112.989 66.1686 113.376 66.8501 114.06 66.8281C114.68 66.8088 114.791 65.9868 115.005 65.392C115.723 63.4066 115.617 61.3607 115.117 59.3408C114.352 56.254 112.959 53.7289 111.082 50.9325Z" fill="#068581"/>
    <path fill-rule="evenodd" clip-rule="evenodd" d="M14.5957 4.5686C14.5357 9.42036 15.782 14.2821 14.0625 18.9714C13.6679 20.0503 13.4773 21.8505 12.4682 21.7878C11.2498 21.7108 10.9553 19.9506 10.742 18.6934C9.82754 13.3086 12.1883 8.93148 14.5957 4.5686Z" fill="#068581"/>
    <path fill-rule="evenodd" clip-rule="evenodd" d="M112.941 4.5686C113.001 9.42036 111.755 14.2821 113.474 18.9714C113.869 20.0503 114.059 21.8505 115.068 21.7878C116.287 21.7108 116.581 19.9506 116.795 18.6934C117.709 13.3086 115.348 8.93148 112.941 4.5686Z" fill="#068581"/>
    <path fill-rule="evenodd" clip-rule="evenodd" d="M25.3263 0.594727C24.8997 3.56111 24.0453 5.8683 22.768 7.97855C22.0885 9.10137 21.4209 10.2338 20.7166 11.3347C20.2156 12.1197 19.5739 12.7817 18.6676 12.411C17.7447 12.0336 17.9574 10.9395 17.9491 10.1544C17.9314 8.55705 18.4797 7.12241 19.34 5.86693C20.8785 3.62539 22.866 2.07176 25.3263 0.594727Z" fill="#068581"/>
    <path fill-rule="evenodd" clip-rule="evenodd" d="M102.211 0.594727C102.637 3.56111 103.492 5.8683 104.769 7.97855C105.449 9.10137 106.116 10.2338 106.821 11.3347C107.322 12.1197 107.963 12.7817 108.87 12.411C109.792 12.0336 109.58 10.9395 109.588 10.1544C109.606 8.55705 109.057 7.12241 108.197 5.86693C106.659 3.62539 104.671 2.07176 102.211 0.594727Z" fill="#068581"/>
    <path fill-rule="evenodd" clip-rule="evenodd" d="M12.0193 80.0756C15.991 81.5875 20.3332 82.052 23.5967 85.0315C24.3219 85.6912 25.7106 86.2271 25.2258 87.3661C24.8606 88.2264 23.4942 88.0487 22.5614 87.8979C17.7633 87.117 14.7731 83.7417 12.0193 80.0756Z" fill="#068581"/>
    <path fill-rule="evenodd" clip-rule="evenodd" d="M115.518 80.0756C111.546 81.5875 107.204 82.052 103.941 85.0315C103.215 85.6912 101.827 86.2271 102.311 87.3661C102.677 88.2264 104.043 88.0487 104.976 87.8979C109.774 87.117 112.764 83.7417 115.518 80.0756Z" fill="#068581"/>
    <path fill-rule="evenodd" clip-rule="evenodd" d="M25.3265 12.5171C22.6817 15.7955 20.3811 18.9125 17.4017 21.2422C16.8063 21.7084 16.0835 22.05 15.4166 21.5255C14.6676 20.9387 15.063 20.093 15.2428 19.3313C15.6595 17.5586 16.6658 16.2915 17.9661 15.3062C20.0917 13.6935 22.496 13.0185 25.3265 12.5171Z" fill="#068581"/>
    <path fill-rule="evenodd" clip-rule="evenodd" d="M102.211 12.5171C104.855 15.7955 107.156 18.9125 110.136 21.2422C110.731 21.7084 111.454 22.05 112.121 21.5255C112.87 20.9387 112.474 20.093 112.294 19.3313C111.878 17.5586 110.871 16.2915 109.571 15.3062C107.445 13.6935 105.041 13.0185 102.211 12.5171Z" fill="#068581"/>
    <path fill-rule="evenodd" clip-rule="evenodd" d="M19.4393 89.3478C22.6705 90.1756 26.1119 89.6055 29.1923 91.5312C29.7017 91.8489 30.2408 92.1135 30.7148 92.4926C31.4481 93.0832 31.4264 93.6519 30.5743 94.0896C29.4801 94.6515 28.3357 94.7742 27.1844 94.5206C24.3918 93.9082 21.9886 92.2826 19.7431 90.2874C19.5353 90.1006 19.3388 89.8783 19.4393 89.3478Z" fill="#068581"/>
    <path fill-rule="evenodd" clip-rule="evenodd" d="M108.098 89.3478C104.867 90.1756 101.425 89.6055 98.3449 91.5312C97.8355 91.8489 97.2964 92.1135 96.8224 92.4926C96.0892 93.0832 96.1109 93.6519 96.9629 94.0896C98.0571 94.6515 99.2016 94.7742 100.353 94.5206C103.145 93.9082 105.549 92.2826 107.794 90.2874C108.002 90.1006 108.198 89.8783 108.098 89.3478Z" fill="#068581"/>
    <path fill-rule="evenodd" clip-rule="evenodd" d="M21.452 72.127C23.5276 75.486 25.5307 78.4535 26.6141 81.7843C26.849 82.5047 27.0441 83.4509 26.066 83.9172C25.1805 84.3369 24.4872 83.657 23.8494 83.2349C22.2734 82.1917 21.5687 80.7092 21.1772 79.0794C20.6447 76.8678 20.9238 74.6907 21.452 72.127Z" fill="#068581"/>
    <path fill-rule="evenodd" clip-rule="evenodd" d="M106.085 72.127C104.01 75.486 102.006 78.4535 100.923 81.7843C100.688 82.5047 100.493 83.4509 101.471 83.9172C102.357 84.3369 103.05 83.657 103.688 83.2349C105.264 82.1917 105.969 80.7092 106.36 79.0794C106.892 76.8678 106.613 74.6907 106.085 72.127Z" fill="#068581"/>
    <path fill-rule="evenodd" clip-rule="evenodd" d="M28.941 77.4264C30.2224 80.9734 31.6336 83.9783 32.3836 87.3243C32.6343 88.441 33.1181 89.8841 32.0896 90.518C31.1066 91.1222 30.3811 89.8248 29.7664 88.9765C28.7479 87.5725 28.4539 85.7963 28.3264 84.0025C28.1766 81.9027 28.4251 79.8378 28.941 77.4264Z" fill="#068581"/>
    <path fill-rule="evenodd" clip-rule="evenodd" d="M98.5957 77.4264C97.3143 80.9734 95.9031 83.9783 95.1531 87.3243C94.9024 88.441 94.4186 89.8841 95.4471 90.518C96.4301 91.1222 97.1556 89.8248 97.7703 88.9765C98.7887 87.5725 99.0827 85.7963 99.2103 84.0025C99.3601 81.9027 99.1116 79.8378 98.5957 77.4264Z" fill="#068581"/>
</svg>
