<svg width="44" height="44" viewBox="0 0 44 44" fill="none" xmlns="http://www.w3.org/2000/svg">
    <path d="M22.0036 0C9.85325 0 0.00360107 9.84965 0.00360107 22C0.00360107 34.1503 9.8469 44 22.0036 44C34.1603 44 44.0036 34.1503 44.0036 22C44.0036 9.84965 34.1503 0 22.0036 0ZM17.5056 34.1014C15.4083 34.1009 13.3471 33.5553 11.5241 32.5182C9.70108 31.4811 8.17892 29.9881 7.10681 28.1854C6.03471 26.3828 5.44947 24.3325 5.40849 22.2356C5.36752 20.1386 5.87219 18.067 6.87305 16.2239C7.87391 14.3807 9.33659 12.8293 11.1177 11.7218C12.8987 10.6143 14.9371 9.98861 17.0328 9.90618C19.1285 9.82374 21.2097 10.2874 23.0723 11.2516C24.9348 12.2158 26.5148 13.6475 27.6574 15.4064C26.7354 14.4384 25.6258 13.6685 24.3964 13.1436C23.167 12.6188 21.8435 12.3499 20.5067 12.3536C15.0961 12.3536 10.7088 16.6719 10.7088 21.9991C10.7088 27.3263 15.0951 31.6446 20.5067 31.6446C21.8435 31.6482 23.167 31.3794 24.3964 30.8545C25.6258 30.3297 26.7354 29.5598 27.6574 28.5918C26.559 30.2839 25.0547 31.6744 23.2817 32.6367C21.5086 33.599 19.523 34.1025 17.5056 34.1014ZM34.5549 24.1447L31.9022 27.7799L31.993 23.4053L27.6574 22.059L31.9041 20.7408V16.3607L34.4134 19.8327L38.5975 18.5145L36.0509 21.9365L38.5975 25.5563L34.5549 24.1447Z" fill="white"/>
</svg>
