<svg width="146" height="60" viewBox="0 0 146 60" fill="none" xmlns="http://www.w3.org/2000/svg">
    <g clip-path="url(#clip0_153_5236)">
        <path d="M49.4138 34.626L29.7596 3.1588C27.861 0.119129 23.8435 -0.814807 20.7863 1.07281L3.09068 11.9983C0.0333865 13.8859 -0.905942 17.8803 0.992615 20.9199L20.6468 52.3871C22.5454 55.4268 26.5629 56.3607 29.6202 54.4731L47.3158 43.5476C50.3731 41.66 51.3124 37.6657 49.4138 34.626Z" fill="#E7E7E7"/>
        <path d="M20.7999 1.07481L20.1293 28.2136C20.1095 29.0247 20.3281 29.8239 20.7584 30.5133C21.1886 31.2027 21.8119 31.7524 22.5516 32.0949L47.3053 43.5495C47.3053 43.5495 52.6805 39.8773 49.4074 34.5928L29.1379 2.09985C28.0898 0.983665 26.6804 0.269396 25.1561 0.0820106C23.6319 -0.105375 22.0899 0.246054 20.7999 1.07481Z" fill="#C4CAD0"/>
        <path d="M0.0700684 16.769L26.1751 22.8297" stroke="#C4CAD0" stroke-width="0.58" stroke-miterlimit="10"/>
        <path d="M24.1832 55.3724L30.289 29.4079" stroke="#C4CAD0" stroke-width="0.58" stroke-miterlimit="10"/>
        <path d="M42.9112 14.7388L38.0265 19.5356H43.6619L42.9112 14.7388Z" fill="#E0C322"/>
        <path d="M56.2539 30.1543C52.676 30.1438 49.2476 28.726 46.7175 26.2105C44.1875 23.6951 42.7615 20.2865 42.751 16.7291C42.7615 13.1718 44.1875 9.76319 46.7175 7.24777C49.2476 4.73234 52.676 3.31453 56.2539 3.30403C59.8328 3.31452 63.2622 4.732 65.7938 7.24715C68.3254 9.76229 69.7537 13.1709 69.7669 16.7291C69.7537 20.2874 68.3254 23.696 65.7938 26.2112C63.2622 28.7263 59.8328 30.1438 56.2539 30.1543Z" fill="#39B4BD"/>
        <path d="M60.0676 13.246C60.0695 14.2798 59.763 15.2909 59.1868 16.1514C58.6106 17.0119 57.7905 17.6831 56.8305 18.0801C55.8704 18.4771 54.8135 18.582 53.7935 18.3815C52.7734 18.181 51.8362 17.6842 51.1002 16.9539C50.3643 16.2236 49.8628 15.2927 49.6592 14.2789C49.4556 13.2651 49.5591 12.2141 49.9566 11.2588C50.354 10.3035 51.0275 9.48694 51.8919 8.9124C52.7563 8.33785 53.7728 8.03118 54.8125 8.03117C56.2045 8.03117 57.5396 8.58028 58.5249 9.55796C59.5101 10.5356 60.0649 11.862 60.0676 13.246Z" fill="white"/>
        <path d="M57.4451 13.246C57.4471 13.7641 57.2944 14.2711 57.0063 14.7028C56.7182 15.1345 56.3078 15.4715 55.8269 15.6712C55.3461 15.8708 54.8165 15.9241 54.3051 15.8242C53.7938 15.7243 53.3238 15.4758 52.9547 15.1102C52.5855 14.7445 52.3338 14.2782 52.2314 13.7702C52.129 13.2622 52.1805 12.7355 52.3795 12.2566C52.5784 11.7778 52.9158 11.3684 53.349 11.0804C53.7821 10.7923 54.2915 10.6386 54.8126 10.6386C55.509 10.6386 56.1771 10.913 56.6705 11.4017C57.1639 11.8904 57.4424 12.5535 57.4451 13.246Z" fill="#21204D"/>
        <path d="M123.368 60L107.053 29.3581L67.9052 23.4964L68.0152 23.9144C70.7956 34.2712 76.9401 43.4244 85.4934 49.9503C94.0466 56.4763 104.529 60.0093 115.311 60H123.368Z" fill="#39B4BD"/>
        <path d="M67.9051 13.246H145.98C145.98 13.246 137.612 37.8769 114.119 37.8769C99.7445 37.8055 85.5254 34.9104 72.2793 29.3581L66.4838 21.3269" fill="#39B4BD"/>
        <path d="M105.051 22.7102L111.567 37.8371C114.703 38.385 117.927 38.1456 120.946 37.1405L105.051 22.7102Z" fill="#2B8A91"/>
        <path d="M67.9151 22.7102L56.2639 30.1642L71.4585 33.0105L67.9151 22.7102Z" fill="#2B8A91"/>
    </g>
    <defs>
        <clipPath id="clip0_153_5236">
            <rect width="146" height="60" fill="white"/>
        </clipPath>
    </defs>
</svg>
