<svg width="39" height="54" viewBox="0 0 39 54" fill="none" xmlns="http://www.w3.org/2000/svg">
    <path d="M31.4167 35.3035V51.9108C31.4167 52.1246 31.36 52.3346 31.2524 52.5193C31.1448 52.7041 30.9901 52.8569 30.8041 52.9623C30.6181 53.0677 30.4075 53.1219 30.1937 53.1193C29.9799 53.1167 29.7706 53.0575 29.5873 52.9476L19.3333 46.7947L9.07942 52.9476C8.89585 53.0576 8.68637 53.1168 8.47238 53.1193C8.2584 53.1218 8.0476 53.0674 7.86152 52.9617C7.67545 52.856 7.52078 52.7028 7.41334 52.5178C7.30589 52.3327 7.24953 52.1224 7.25 51.9084V35.3059C4.12319 32.8025 1.85115 29.3896 0.747859 25.539C-0.35543 21.6885 -0.23549 17.5903 1.0911 13.8108C2.4177 10.0313 4.88544 6.75721 8.15331 4.44091C11.4212 2.12461 15.3278 0.880493 19.3333 0.880493C23.3389 0.880493 27.2455 2.12461 30.5134 4.44091C33.7812 6.75721 36.249 10.0313 37.5756 13.8108C38.9022 17.5903 39.0221 21.6885 37.9188 25.539C36.8155 29.3896 34.5435 32.8025 31.4167 35.3059V35.3035ZM19.3333 34.7114C23.179 34.7114 26.8671 33.1837 29.5864 30.4645C32.3057 27.7452 33.8333 24.057 33.8333 20.2114C33.8333 16.3658 32.3057 12.6776 29.5864 9.95836C26.8671 7.23908 23.179 5.71141 19.3333 5.71141C15.4877 5.71141 11.7996 7.23908 9.08029 9.95836C6.36101 12.6776 4.83333 16.3658 4.83333 20.2114C4.83333 24.057 6.36101 27.7452 9.08029 30.4645C11.7996 33.1837 15.4877 34.7114 19.3333 34.7114ZM19.3333 29.8781C16.7696 29.8781 14.3108 28.8596 12.498 27.0468C10.6851 25.2339 9.66667 22.7752 9.66667 20.2114C9.66667 17.6476 10.6851 15.1889 12.498 13.376C14.3108 11.5632 16.7696 10.5447 19.3333 10.5447C21.8971 10.5447 24.3558 11.5632 26.1687 13.376C27.9816 15.1889 29 17.6476 29 20.2114C29 22.7752 27.9816 25.2339 26.1687 27.0468C24.3558 28.8596 21.8971 29.8781 19.3333 29.8781Z" fill="white"/>
</svg>
