<svg width="55" height="44" viewBox="0 0 55 44" fill="none" xmlns="http://www.w3.org/2000/svg">
<path d="M48.2984 0H53.9697L30.9444 26.3241C30.3483 26.9769 30.3313 28.0178 30.9103 28.6883L44.1942 44.1441H38.2675L25.9885 29.8175L25.3754 29.0412C24.7964 28.3707 24.8134 27.3297 25.4094 26.6769L48.2984 0Z" fill="white"/>
<path d="M35.5084 28.7058C35.1338 28.2647 34.9976 27.6648 35.1338 27.1179C35.236 26.8179 35.4574 26.4827 35.6617 26.2534L37.1945 24.5596L54.1059 44.144H48.7242C48.7242 44.144 38.8124 32.5697 35.5084 28.7058Z" fill="white"/>
<path d="M5.90961 44.1441H0L18.1205 23.1482C18.6995 22.4778 18.6995 21.4721 18.1205 20.8193L0.136244 0H5.82445L23.9108 20.9957C24.3707 21.6133 24.4558 22.5131 23.9619 23.0953C19.2275 28.5824 5.90961 44.1441 5.90961 44.1441Z" fill="white"/>
<path d="M15.8213 0H10.3545L27.1125 19.4255C27.1125 19.4255 27.1636 19.3902 29.037 17.1847C29.5479 16.5848 29.6501 15.8439 29.0881 15.2793C25.5627 11.6623 15.8213 0 15.8213 0Z" fill="white"/>
<path d="M32.1366 13.5502L43.7684 0H38.2676L32.1877 7.09268L30.4336 9.13931C29.8375 9.79214 29.8205 10.8154 30.3995 11.5035C30.8423 12.0152 32.1366 13.5502 32.1366 13.5502Z" fill="white"/>
<path d="M22.0377 30.594L10.4058 44.1441H15.9067L21.9866 37.0515L23.7407 35.0049C24.3368 34.3521 24.3538 33.3287 23.7748 32.6407C23.332 32.129 22.0377 30.594 22.0377 30.594Z" fill="white"/>
</svg>
