<svg width="31" height="22" viewBox="0 0 31 22" fill="none" xmlns="http://www.w3.org/2000/svg">
    <path d="M29.5333 3.34623C29.3625 2.70046 29.0298 2.11581 28.5707 1.65444C28.0985 1.17888 27.5198 0.838696 26.8892 0.666005C24.5291 0.00660565 15.0737 0.00660584 15.0737 0.00660584C11.1318 -0.040934 7.19091 0.168158 3.27323 0.632702C2.6426 0.818151 2.06499 1.16593 1.59176 1.64511C1.12678 2.11935 0.789985 2.70415 0.614046 3.3449C0.191409 5.75836 -0.0139378 8.20893 0.000775616 10.6636C-0.0143048 13.116 0.190538 15.5658 0.614046 17.9822C0.786215 18.6203 1.12175 19.2025 1.58799 19.6727C2.05423 20.1429 2.63482 20.4826 3.27323 20.6625C5.66473 21.3205 15.0737 21.3205 15.0737 21.3205C19.0205 21.3681 22.9665 21.159 26.8892 20.6944C27.5198 20.5217 28.0985 20.1816 28.5707 19.706C29.0297 19.2447 29.362 18.66 29.532 18.0142C29.9657 15.6017 30.1766 13.1501 30.1616 10.6942C30.1943 8.22792 29.9837 5.76478 29.5333 3.3449V3.34623ZM12.0676 15.2247V6.10372L19.9346 10.6649L12.0676 15.2247Z" fill="white"/>
</svg>
